<?xml version="1.0" encoding="UTF-8" standalone="no"?>
<svg
   xmlns:dc="http://purl.org/dc/elements/1.1/"
   xmlns:cc="http://creativecommons.org/ns#"
   xmlns:rdf="http://www.w3.org/1999/02/22-rdf-syntax-ns#"
   xmlns:svg="http://www.w3.org/2000/svg"
   xmlns="http://www.w3.org/2000/svg"
   xmlns:sodipodi="http://sodipodi.sourceforge.net/DTD/sodipodi-0.dtd"
   xmlns:inkscape="http://www.inkscape.org/namespaces/inkscape"
   width="14in"
   height="4in"
   viewBox="0 0 14 4"
   version="1.1"
   preserveAspectRatio="xMidYMid meet"
   id="svg9"
   sodipodi:docname="box.svg"
   inkscape:version="0.92.2 5c3e80d, 2017-08-06">
  <metadata
     id="metadata15">
    <rdf:RDF>
      <cc:Work
         rdf:about="">
        <dc:format>image/svg+xml</dc:format>
        <dc:type
           rdf:resource="http://purl.org/dc/dcmitype/StillImage" />
        <dc:title />
      </cc:Work>
    </rdf:RDF>
  </metadata>
  <defs
     id="defs13">
    <clipPath
       id="clipPath18"
       clipPathUnits="userSpaceOnUse">
      <path
         id="path16"
         d="M 0,93.507 H 93.507 V 0 H 0 Z" />
    </clipPath>
  </defs>
  <sodipodi:namedview
     pagecolor="#ffffff"
     bordercolor="#666666"
     borderopacity="1"
     objecttolerance="10"
     gridtolerance="10"
     guidetolerance="10"
     inkscape:pageopacity="0"
     inkscape:pageshadow="2"
     inkscape:window-width="1440"
     inkscape:window-height="783"
     id="namedview11"
     showgrid="false"
     inkscape:zoom="0.96428569"
     inkscape:cx="675.0156"
     inkscape:cy="139.65428"
     inkscape:window-x="0"
     inkscape:window-y="0"
     inkscape:window-maximized="0"
     inkscape:current-layer="svg9" />
  <g
     id="svgGroup"
     stroke-linecap="round"
     fill-rule="evenodd"
     font-size="9pt"
     stroke="#000"
     stroke-width="0.25mm"
     fill="none"
     style="stroke:#000;stroke-width:0.25mm;fill:none"
     clip-path="none">
    <path
       d="M 0 1.255 L 0 2.745 L 0.118 2.745 L 0.118 2.926 L 0.262 2.926 L 0.262 2.839 L 0.386 2.839 L 0.386 2.926 L 0.51 2.926 L 0.51 3.074 L 0.386 3.074 L 0.386 3.161 L 0.262 3.161 L 0.262 3.074 L 0.118 3.074 L 0.118 3.255 L 0 3.255 L 0 4 L 0.781 4 L 0.781 3.882 L 1.489 3.882 L 1.489 3.738 L 1.402 3.738 L 1.402 3.614 L 1.489 3.614 L 1.489 3.49 L 1.637 3.49 L 1.637 3.614 L 1.724 3.614 L 1.724 3.738 L 1.637 3.738 L 1.637 3.882 L 2.344 3.882 L 2.344 4 L 3.906 4 L 3.906 3.882 L 4.614 3.882 L 4.614 3.738 L 4.527 3.738 L 4.527 3.614 L 4.614 3.614 L 4.614 3.49 L 4.762 3.49 L 4.762 3.614 L 4.849 3.614 L 4.849 3.738 L 4.762 3.738 L 4.762 3.882 L 5.469 3.882 L 5.469 4 L 6.25 4 L 6.25 3.074 M 2.344 1.882 L 2.344 2.118 L 1.637 2.118 L 1.637 2.262 L 1.724 2.262 L 1.724 2.386 L 1.637 2.386 L 1.637 2.51 L 1.489 2.51 L 1.489 2.386 L 1.402 2.386 L 1.402 2.262 L 1.489 2.262 L 1.489 2.118 L 0.781 2.118 L 0.781 1.882 M 5.469 1.882 L 5.469 2.118 L 4.762 2.118 L 4.762 2.262 L 4.849 2.262 L 4.849 2.386 L 4.762 2.386 L 4.762 2.51 L 4.614 2.51 L 4.614 2.386 L 4.527 2.386 L 4.527 2.262 L 4.614 2.262 L 4.614 2.118 L 3.906 2.118 L 3.906 1.882 M 6.368 3.255 L 6.132 3.255 L 6.132 3.074 L 5.988 3.074 L 5.988 3.161 L 5.864 3.161 L 5.864 3.074 L 5.74 3.074 L 5.74 2.926 L 5.864 2.926 L 5.864 2.839 L 5.988 2.839 L 5.988 2.926 L 6.132 2.926 L 6.132 2.745 L 6.368 2.745 M 6.25 2.926 6.25 1.074 M 5.469 2 6.25 2 M 2.344 2 3.906 2 M 0 2 0.781 2"
       id="front_outsideCutPath"
       stroke="#FF0000"
       stroke-width="0.1"
       style="stroke:#FF0000;stroke-width:0.03125;stroke-miterlimit:4;stroke-dasharray:none"
       vector-effect="non-scaling-stroke" />
    <path
       d="M 7.75 2.995 L 7.75 3.255 L 7.632 3.255 L 7.632 4 L 7.255 4 L 7.255 3.882 L 7.074 3.882 L 7.074 3.738 L 7.161 3.738 L 7.161 3.614 L 7.074 3.614 L 7.074 3.49 L 6.926 3.49 L 6.926 3.614 L 6.839 3.614 L 6.839 3.738 L 6.926 3.738 L 6.926 3.882 L 6.745 3.882 L 6.745 4 L 6.368 4 L 6.368 3.255 M 7.632 1.255 L 7.632 2.745 L 7.75 2.745 L 7.75 2.926 L 7.602 2.926 L 7.602 3 L 7.602 3.074 L 7.75 3.074 M 7.255 1.882 L 7.255 2.118 L 7.074 2.118 L 7.074 2.262 L 7.161 2.262 L 7.161 2.386 L 7.074 2.386 L 7.074 2.51 L 6.926 2.51 L 6.926 2.386 L 6.839 2.386 L 6.839 2.262 L 6.926 2.262 L 6.926 2.118 L 6.745 2.118 L 6.745 1.882 M 6.25 3.074 L 6.398 3.074 L 6.398 3 L 6.398 2.926 L 6.25 2.926 M 6.368 2.745 6.368 1.255 M 7.255 2 7.632 2 M 6.368 2 6.745 2"
       id="left_outsideCutPath"
       stroke="#FF0000"
       stroke-width="0.1"
       style="stroke:#FF0000;stroke-width:0.03125;stroke-miterlimit:4;stroke-dasharray:none"
       vector-effect="non-scaling-stroke" />
    <path
       d="M 13.219 2.382 L 13.219 2.618 L 13.882 2.618 L 13.882 2.995 L 14 2.995 L 14 3.176 L 13.852 3.176 L 13.852 3.25 L 13.852 3.324 L 14 3.324 L 14 3.505 L 13.882 3.505 L 13.882 3.882 L 13.219 3.882 L 13.219 4 L 12.512 4 L 12.512 3.852 L 12.438 3.852 L 12.364 3.852 L 12.364 4 L 11.656 4 L 11.656 3.882 L 10.094 3.882 L 10.094 4 L 9.387 4 L 9.387 3.852 L 9.313 3.852 L 9.239 3.852 L 9.239 4 L 8.531 4 L 8.531 3.882 L 7.868 3.882 L 7.868 3.505 L 7.75 3.505 L 7.75 3.324 L 7.898 3.324 L 7.898 3.25 L 7.898 3.176 L 7.75 3.176 M 11.656 2.382 L 11.656 2.618 L 10.094 2.618 L 10.094 2.382 M 7.75 2.995 L 7.868 2.995 L 7.868 2.618 L 8.531 2.618 L 8.531 2.382 M 12.512 2.352 L 12.512 2.648 L 12.438 2.648 L 12.364 2.648 L 12.364 2.352 M 9.387 2.352 L 9.387 2.648 L 9.313 2.648 L 9.239 2.648 L 9.239 2.352 M 12.512 2.5 13.219 2.5 M 11.656 2.5 12.364 2.5 M 9.387 2.5 10.094 2.5 M 8.531 2.5 9.239 2.5"
       id="top_outsideCutPath"
       stroke="#FF0000"
       stroke-width="0.1"
       style="stroke:#FF0000;stroke-width:0.03125;stroke-miterlimit:4;stroke-dasharray:none"
       vector-effect="non-scaling-stroke" />
    <path
       d="M 0 1.255 L 0.118 1.255 L 0.118 1.074 L 0.262 1.074 L 0.262 1.161 L 0.386 1.161 L 0.386 1.074 L 0.51 1.074 L 0.51 0.926 L 0.386 0.926 L 0.386 0.839 L 0.262 0.839 L 0.262 0.926 L 0.118 0.926 L 0.118 0.745 L 0 0.745 L 0 0 L 0.781 0 L 0.781 0.118 L 1.489 0.118 L 1.489 0.262 L 1.402 0.262 L 1.402 0.386 L 1.489 0.386 L 1.489 0.51 L 1.637 0.51 L 1.637 0.386 L 1.724 0.386 L 1.724 0.262 L 1.637 0.262 L 1.637 0.118 L 2.344 0.118 L 2.344 0 L 3.906 0 L 3.906 0.118 L 4.614 0.118 L 4.614 0.262 L 4.527 0.262 L 4.527 0.386 L 4.614 0.386 L 4.614 0.51 L 4.762 0.51 L 4.762 0.386 L 4.849 0.386 L 4.849 0.262 L 4.762 0.262 L 4.762 0.118 L 5.469 0.118 L 5.469 0 L 6.25 0 L 6.25 0.926 M 2.344 1.882 L 1.637 1.882 L 1.637 1.738 L 1.724 1.738 L 1.724 1.614 L 1.637 1.614 L 1.637 1.49 L 1.489 1.49 L 1.489 1.614 L 1.402 1.614 L 1.402 1.738 L 1.489 1.738 L 1.489 1.882 L 0.781 1.882 M 5.469 1.882 L 4.762 1.882 L 4.762 1.738 L 4.849 1.738 L 4.849 1.614 L 4.762 1.614 L 4.762 1.49 L 4.614 1.49 L 4.614 1.614 L 4.527 1.614 L 4.527 1.738 L 4.614 1.738 L 4.614 1.882 L 3.906 1.882 M 6.368 1.255 L 6.132 1.255 L 6.132 1.074 L 5.988 1.074 L 5.988 1.161 L 5.864 1.161 L 5.864 1.074 L 5.74 1.074 L 5.74 0.926 L 5.864 0.926 L 5.864 0.839 L 5.988 0.839 L 5.988 0.926 L 6.132 0.926 L 6.132 0.745 L 6.368 0.745"
       id="back_outsideCutPath"
       stroke="#FF0000"
       stroke-width="0.1"
       style="stroke:#FF0000;stroke-width:0.03125;stroke-miterlimit:4;stroke-dasharray:none"
       vector-effect="non-scaling-stroke" />
    <path
       d="M 6.368 0.745 L 6.368 0 L 6.745 0 L 6.745 0.118 L 6.926 0.118 L 6.926 0.262 L 6.839 0.262 L 6.839 0.386 L 6.926 0.386 L 6.926 0.51 L 7.074 0.51 L 7.074 0.386 L 7.161 0.386 L 7.161 0.262 L 7.074 0.262 L 7.074 0.118 L 7.255 0.118 L 7.255 0 L 7.632 0 L 7.632 0.745 L 7.75 0.745 L 7.75 0.926 L 7.602 0.926 L 7.602 1 L 7.602 1.074 L 7.75 1.074 L 7.75 1.255 L 7.632 1.255 M 7.255 1.882 L 7.074 1.882 L 7.074 1.738 L 7.161 1.738 L 7.161 1.614 L 7.074 1.614 L 7.074 1.49 L 6.926 1.49 L 6.926 1.614 L 6.839 1.614 L 6.839 1.738 L 6.926 1.738 L 6.926 1.882 L 6.745 1.882 M 6.25 1.074 L 6.398 1.074 L 6.398 1 L 6.398 0.926 L 6.25 0.926"
       id="right_outsideCutPath"
       stroke="#FF0000"
       stroke-width="0.1"
       style="stroke:#FF0000;stroke-width:0.03125;stroke-miterlimit:4;stroke-dasharray:none"
       vector-effect="non-scaling-stroke" />
    <path
       d="M 8.531 2.382 L 7.868 2.382 L 7.868 2.005 L 7.75 2.005 L 7.75 1.824 L 7.898 1.824 L 7.898 1.75 L 7.898 1.676 L 7.75 1.676 L 7.75 1.495 L 7.868 1.495 L 7.868 1.118 L 8.531 1.118 L 8.531 1 L 9.239 1 L 9.239 1.148 L 9.313 1.148 L 9.387 1.148 L 9.387 1 L 10.094 1 L 10.094 1.118 L 11.656 1.118 L 11.656 1 L 12.364 1 L 12.364 1.148 L 12.438 1.148 L 12.512 1.148 L 12.512 1 L 13.219 1 L 13.219 1.118 L 13.882 1.118 L 13.882 1.495 L 14 1.495 L 14 1.676 L 13.852 1.676 L 13.852 1.75 L 13.852 1.824 L 14 1.824 L 14 2.005 L 13.882 2.005 L 13.882 2.382 L 13.219 2.382 M 9.387 2.352 L 9.313 2.352 L 9.239 2.352 M 12.512 2.352 L 12.438 2.352 L 12.364 2.352 M 10.094 2.382 11.656 2.382"
       id="bottom_outsideCutPath"
       stroke="#FF0000"
       stroke-width="0.1"
       style="stroke:#FF0000;stroke-width:0.03125;stroke-miterlimit:4;stroke-dasharray:none"
       vector-effect="non-scaling-stroke" />
  </g>
  <path
     style="fill:none;fill-opacity:1;stroke:#ff0101;stroke-width:0.03125;stroke-opacity:1;stroke-miterlimit:4;stroke-dasharray:none"
     d="M 6.891199,0.7210682 A 0.20177165,0.20177165 0 0 1 6.6894274,0.92283985 0.20177165,0.20177165 0 0 1 6.4876557,0.7210682 0.20177165,0.20177165 0 0 1 6.6894274,0.51929656 0.20177165,0.20177165 0 0 1 6.891199,0.7210682 Z"
     id="path43"
     clip-path="none" />
  <path
     style="fill:none;fill-opacity:1;stroke:#ff0101;stroke-width:0.03125;stroke-opacity:1;stroke-miterlimit:4;stroke-dasharray:none"
     d="M 7.5162009,1.2689078 A 0.20177165,0.20177165 0 0 1 7.3144293,1.4706794 0.20177165,0.20177165 0 0 1 7.1126576,1.2689078 0.20177165,0.20177165 0 0 1 7.3144293,1.0671361 0.20177165,0.20177165 0 0 1 7.5162009,1.2689078 Z"
     id="path45"
     clip-path="none" />
  <g
     aria-label="IN"
     style="font-style:normal;font-weight:normal;font-size:0.41666681px;line-height:1.25;font-family:sans-serif;letter-spacing:0px;word-spacing:0px;fill:#000000;fill-opacity:1;stroke:none;stroke-width:0.01041667"
     id="text854"
     transform="translate(0,0.06249999)"
     clip-path="none">
    <path
       d="m 6.826392,1.2549494 v -0.097222 h 0.019444 v 0.097222 z"
       style="font-style:normal;font-variant:normal;font-weight:normal;font-stretch:normal;font-size:0.13888904px;font-family:'Jaapokki subtract';-inkscape-font-specification:'Jaapokki subtract';stroke-width:0.01041667"
       id="path4752"
       inkscape:connector-curvature="0" />
    <path
       d="m 6.9379937,1.2550883 -0.054722,-0.056806 v 0.056806 h -0.019444 v -0.097361 h 0.00611 l 0.05375,0.054445 v -0.054445 h 0.019445 v 0.097361 z"
       style="font-style:normal;font-variant:normal;font-weight:normal;font-stretch:normal;font-size:0.13888904px;font-family:'Jaapokki subtract';-inkscape-font-specification:'Jaapokki subtract';stroke-width:0.01041667"
       id="path4754"
       inkscape:connector-curvature="0" />
  </g>
  <g
     aria-label="OUT"
     style="font-style:normal;font-weight:normal;font-size:0.41666681px;line-height:1.25;font-family:sans-serif;letter-spacing:0px;word-spacing:0px;fill:#000000;fill-opacity:1;stroke:none;stroke-width:0.01041667"
     id="text879"
     transform="translate(0,-0.06249999)"
     clip-path="none">
    <path
       d="m 7.108392,0.73315141 c -0.027778,0 -0.050417,0.0226389 -0.050417,0.0504167 0,0.0277778 0.022639,0.0504167 0.050417,0.0504167 0.027778,0 0.050417,-0.0226389 0.050417,-0.0504167 0,-0.0277778 -0.022639,-0.0504167 -0.050417,-0.0504167 z m 0,0.02 c 0.016806,0 0.030417,0.0136111 0.030417,0.0304167 0,0.0168056 -0.013611,0.0304167 -0.030417,0.0304167 -0.016806,0 -0.030417,-0.0136111 -0.030417,-0.0304167 0,-0.0168056 0.013611,-0.0304167 0.030417,-0.0304167 z"
       style="font-style:normal;font-variant:normal;font-weight:normal;font-stretch:normal;font-size:0.13888904px;font-family:'Jaapokki subtract';-inkscape-font-specification:'Jaapokki subtract';stroke-width:0.01041667"
       id="path4757"
       inkscape:connector-curvature="0" />
    <path
       d="m 7.2348266,0.79634592 v -0.061389 h -0.019444 v 0.0615278 h 1.389e-4 c -1.389e-4,0.004861 -0.00194,0.009306 -0.00542,0.0127778 -0.00347,0.003472 -0.00792,0.005278 -0.012778,0.005278 -0.00486,0 -0.00944,-0.001806 -0.012917,-0.005278 -0.00347,-0.003472 -0.00542,-0.008056 -0.00542,-0.0129167 v -0.061389 h -0.019444 v 0.0615278 c 1.389e-4,0.0206945 0.016945,0.0375001 0.037778,0.0375001 0.020695,0 0.037639,-0.0168056 0.037639,-0.0376389 z"
       style="font-style:normal;font-variant:normal;font-weight:normal;font-stretch:normal;font-size:0.13888904px;font-family:'Jaapokki subtract';-inkscape-font-specification:'Jaapokki subtract';stroke-width:0.01041667"
       id="path4759"
       inkscape:connector-curvature="0" />
    <path
       d="m 7.2474394,0.73495697 v 0.0194445 h 0.027083 v 0.0779168 h 0.019445 v -0.0779168 h 0.026944 v -0.0194445 z"
       style="font-style:normal;font-variant:normal;font-weight:normal;font-stretch:normal;font-size:0.13888904px;font-family:'Jaapokki subtract';-inkscape-font-specification:'Jaapokki subtract';stroke-width:0.01041667"
       id="path4761"
       inkscape:connector-curvature="0" />
  </g>
  <path
     style="fill:none;fill-opacity:1;stroke:#ff0101;stroke-width:0.03125;stroke-opacity:1;stroke-miterlimit:4;stroke-dasharray:none"
     d="M 11.080086,1.588089 A 0.15376334,0.15376334 0 0 1 10.926323,1.7418523 0.15376334,0.15376334 0 0 1 10.77256,1.588089 0.15376334,0.15376334 0 0 1 10.926323,1.4343257 0.15376334,0.15376334 0 0 1 11.080086,1.588089 Z"
     id="path4570"
     clip-path="none" />
  <path
     style="fill:none;fill-opacity:1;stroke:#ff0101;stroke-width:0.03125;stroke-opacity:1;stroke-miterlimit:4;stroke-dasharray:none"
     d="M 12.061077,1.588089 A 0.15252787,0.15252785 0 0 1 11.908549,1.7406168 0.15252787,0.15252785 0 0 1 11.756021,1.588089 0.15252787,0.15252785 0 0 1 11.908549,1.4355611 0.15252787,0.15252785 0 0 1 12.061077,1.588089 Z"
     id="path4572"
     clip-path="none" />
  <path
     style="fill:none;fill-opacity:1;stroke:#ff0101;stroke-width:0.03125;stroke-opacity:1;stroke-miterlimit:4;stroke-dasharray:none"
     d="M 13.042793,1.588089 A 0.15201731,0.1520173 0 0 1 12.890776,1.7401063 0.15201731,0.1520173 0 0 1 12.738758,1.588089 0.15201731,0.1520173 0 0 1 12.890776,1.4360717 0.15201731,0.1520173 0 0 1 13.042793,1.588089 Z"
     id="path4574"
     clip-path="none" />
  <g
     transform="matrix(0.01388889,0,0,-0.01388889,6.3556432,3.6417186)"
     id="g10"
     style="fill:#000000;fill-opacity:1"
     clip-path="none">
    <g
       style="fill:#000000;fill-opacity:1"
       id="g12">
      <g
         style="fill:#000000;fill-opacity:1"
         clip-path="url(#clipPath18)"
         id="g14">
        <g
           style="fill:#000000;fill-opacity:1"
           transform="translate(69.0172,49.3868)"
           id="g20">
          <path
             id="path22"
             style="fill:#000000;fill-opacity:1;fill-rule:nonzero;stroke:none"
             d="M 0,0 V -7.026 H -2.017 V 0 H -4.843 V 1.747 H 2.813 V 0 Z m -8.276,-5.615 c -0.176,-0.333 -0.415,-0.62 -0.718,-0.863 -0.302,-0.243 -0.658,-0.433 -1.067,-0.569 -0.409,-0.136 -0.849,-0.204 -1.321,-0.204 -0.435,0 -0.833,0.041 -1.193,0.124 -0.361,0.082 -0.685,0.191 -0.973,0.327 -0.289,0.135 -0.548,0.29 -0.779,0.463 -0.232,0.174 -0.431,0.352 -0.598,0.534 l 1.278,1.384 c 0.115,-0.125 0.248,-0.252 0.4,-0.381 0.152,-0.129 0.321,-0.247 0.509,-0.352 0.187,-0.106 0.392,-0.191 0.614,-0.255 0.221,-0.065 0.46,-0.097 0.716,-0.097 0.15,0 0.3,0.021 0.447,0.064 0.149,0.043 0.285,0.107 0.41,0.191 0.124,0.084 0.223,0.185 0.296,0.303 0.073,0.119 0.11,0.253 0.11,0.404 0,0.327 -0.158,0.581 -0.474,0.762 -0.316,0.181 -0.817,0.36 -1.504,0.536 -0.333,0.078 -0.64,0.192 -0.922,0.342 -0.283,0.151 -0.526,0.332 -0.729,0.543 -0.204,0.211 -0.361,0.453 -0.474,0.726 -0.112,0.274 -0.169,0.578 -0.169,0.914 0,0.368 0.065,0.714 0.195,1.038 0.13,0.325 0.328,0.611 0.595,0.859 0.266,0.247 0.597,0.443 0.993,0.589 0.397,0.145 0.865,0.218 1.406,0.218 0.446,0 0.842,-0.046 1.187,-0.137 0.344,-0.092 0.637,-0.201 0.877,-0.329 0.24,-0.127 0.437,-0.258 0.591,-0.391 0.155,-0.134 0.271,-0.239 0.348,-0.316 l -1.143,-1.266 c -0.099,0.078 -0.212,0.162 -0.338,0.255 -0.127,0.093 -0.268,0.179 -0.425,0.258 -0.156,0.08 -0.33,0.147 -0.521,0.201 -0.19,0.053 -0.391,0.08 -0.601,0.08 -0.142,0 -0.28,-0.022 -0.416,-0.067 -0.135,-0.046 -0.258,-0.105 -0.367,-0.178 -0.11,-0.073 -0.198,-0.161 -0.264,-0.265 -0.066,-0.103 -0.1,-0.211 -0.1,-0.323 0,-0.301 0.159,-0.544 0.477,-0.73 0.318,-0.185 0.753,-0.34 1.307,-0.465 0.327,-0.077 0.645,-0.184 0.955,-0.319 0.311,-0.136 0.588,-0.314 0.832,-0.536 0.244,-0.222 0.441,-0.493 0.591,-0.814 0.15,-0.321 0.225,-0.711 0.225,-1.172 0,-0.392 -0.088,-0.754 -0.263,-1.086 m -10.307,1.854 c 0,-0.527 -0.086,-1.01 -0.257,-1.449 -0.172,-0.439 -0.418,-0.813 -0.74,-1.124 -0.321,-0.31 -0.71,-0.553 -1.167,-0.729 -0.456,-0.175 -0.965,-0.263 -1.526,-0.263 -0.56,0 -1.067,0.086 -1.522,0.257 -0.455,0.171 -0.841,0.414 -1.159,0.729 -0.318,0.315 -0.563,0.691 -0.734,1.13 -0.171,0.439 -0.256,0.922 -0.256,1.449 v 5.446 h 1.985 v -5.271 c 0,-0.295 0.029,-0.56 0.086,-0.795 0.058,-0.235 0.153,-0.437 0.284,-0.606 0.131,-0.169 0.304,-0.301 0.521,-0.394 0.217,-0.094 0.481,-0.14 0.795,-0.14 0.309,0 0.57,0.046 0.785,0.14 0.214,0.093 0.388,0.225 0.521,0.394 0.133,0.169 0.227,0.371 0.283,0.606 0.056,0.235 0.084,0.5 0.084,0.795 v 5.271 h 2.017 z M -30.68,-7.026 c -0.596,0 -1.078,0.482 -1.078,1.077 0,0.595 0.482,1.078 1.078,1.078 0.595,0 1.077,-0.483 1.077,-1.078 0,-0.595 -0.482,-1.077 -1.077,-1.077 m -1.702,3.551 -1.067,3.314 -1.092,-3.314 -0.054,-0.181 h -1.899 l 2.018,5.403 h 2.196 l 1.977,-5.4 -2.023,-0.005 z m -3.708,-3.551 c -0.595,0 -1.078,0.482 -1.078,1.077 0,0.595 0.483,1.078 1.078,1.078 0.595,0 1.078,-0.483 1.078,-1.078 0,-0.595 -0.483,-1.077 -1.078,-1.077 M -39.541,0 h -3.912 v -1.991 h 2.974 v -1.696 h -2.974 v -3.339 h -1.984 v 8.773 h 5.896 z"
             inkscape:connector-curvature="0"
             clip-path="none" />
        </g>
      </g>
    </g>
  </g>
  <g
     aria-label="depth"
     style="font-style:normal;font-variant:normal;font-weight:normal;font-stretch:normal;font-size:0.41666681px;line-height:1.25;font-family:'Jaapokki subtract';-inkscape-font-specification:'Jaapokki subtract';letter-spacing:0px;word-spacing:0px;fill:#000000;fill-opacity:1;stroke:none;stroke-width:0.01041667"
     id="text4649"
     transform="matrix(1.1,0,0,1.1,-1.2919197,-0.16654566)"
     clip-path="none">
    <path
       d="m 12.764754,2.0386508 h 0.01639 V 1.9353173 h -0.01639 v 0.050695 c -0.0057,-0.00556 -0.01361,-0.00903 -0.02222,-0.00903 -0.0175,0 -0.03167,0.014306 -0.03167,0.031806 0,0.017639 0.01417,0.031806 0.03167,0.031806 0.0086,0 0.01653,-0.00347 0.02222,-0.00903 z m -0.03556,-0.029861 c 0,-0.00431 0.0017,-0.00833 0.0046,-0.011528 0.0029,-0.00306 0.0068,-0.00472 0.01097,-0.00472 0.0042,0 0.0082,0.00167 0.01111,0.00472 0.0029,0.00319 0.0046,0.00722 0.0046,0.011528 0,0.00431 -0.0017,0.00847 -0.0046,0.011528 -0.0029,0.00306 -0.0069,0.00472 -0.01111,0.00472 -0.0042,0 -0.0081,-0.00167 -0.01097,-0.00472 -0.0029,-0.00306 -0.0046,-0.00722 -0.0046,-0.011528 z"
       style="font-style:normal;font-variant:normal;font-weight:normal;font-stretch:normal;font-size:0.13888904px;font-family:Jaapokki;-inkscape-font-specification:Jaapokki;stroke-width:0.01041667"
       id="path4741"
       inkscape:connector-curvature="0" />
    <path
       d="m 12.83421,2.0204563 c -0.0028,0.00278 -0.0065,0.00444 -0.01028,0.00444 -0.004,0 -0.0078,-0.00167 -0.01069,-0.00486 -0.0015,-0.00167 -0.0026,-0.00361 -0.0035,-0.00583 h 0.04472 c 4.17e-4,-0.00194 5.56e-4,-0.00375 5.56e-4,-0.00569 0,-0.017639 -0.01431,-0.031806 -0.03181,-0.031806 -0.0175,0 -0.03181,0.014167 -0.03181,0.031806 0,0.0175 0.01431,0.031806 0.03181,0.031806 0.0096,0 0.01833,-0.00431 0.02403,-0.011111 z m -0.02472,-0.016806 c 8.34e-4,-0.0025 0.0021,-0.00486 0.0038,-0.00681 0.0029,-0.00306 0.0067,-0.00472 0.01069,-0.00472 0.0039,0 0.0078,0.00167 0.01056,0.00472 0.0018,0.00194 0.0031,0.00431 0.0038,0.00681 z"
       style="font-style:normal;font-variant:normal;font-weight:normal;font-stretch:normal;font-size:0.13888904px;font-family:Jaapokki;-inkscape-font-specification:Jaapokki;stroke-width:0.01041667"
       id="path4743"
       inkscape:connector-curvature="0" />
    <path
       d="m 12.881757,1.9787896 h -0.015 V 2.082123 h 0.01625 V 2.03129 c 0.0057,0.00569 0.01361,0.00903 0.02222,0.00903 0.0175,0 0.03167,-0.014167 0.03167,-0.031806 0,-0.0175 -0.01417,-0.031806 -0.03167,-0.031806 -0.0086,0 -0.01653,0.00347 -0.02222,0.00903 z m 0.03681,0.029722 c 0,0.00444 -0.0017,0.00847 -0.0046,0.011528 -0.0029,0.00306 -0.0068,0.00472 -0.01097,0.00472 -0.0042,0 -0.0082,-0.00167 -0.01111,-0.00472 -0.0029,-0.00306 -0.0046,-0.00708 -0.0046,-0.011528 0,-0.00431 0.0017,-0.00833 0.0046,-0.011389 0.0029,-0.00319 0.0069,-0.00486 0.01111,-0.00486 0.0042,0 0.0081,0.00167 0.01097,0.00486 0.0029,0.00306 0.0046,0.00708 0.0046,0.011389 z"
       style="font-style:normal;font-variant:normal;font-weight:normal;font-stretch:normal;font-size:0.13888904px;font-family:Jaapokki;-inkscape-font-specification:Jaapokki;stroke-width:0.01041667"
       id="path4745"
       inkscape:connector-curvature="0" />
    <path
       d="m 12.977966,1.9787896 v -0.022222 h -0.01764 v 0.022222 h -0.0125 v 0.01625 h 0.0125 v 0.043611 h 0.01764 v -0.043611 h 0.01389 v -0.01625 z"
       style="font-style:normal;font-variant:normal;font-weight:normal;font-stretch:normal;font-size:0.13888904px;font-family:Jaapokki;-inkscape-font-specification:Jaapokki;stroke-width:0.01041667"
       id="path4747"
       inkscape:connector-curvature="0" />
    <path
       d="m 13.021102,1.9353173 h -0.01847 v 0.1033335 h 0.01847 v -0.029861 c 0,-0.00431 0.0017,-0.00833 0.0046,-0.011528 0.0029,-0.00306 0.0069,-0.00472 0.01111,-0.00472 0.0042,0 0.0081,0.00167 0.01097,0.00472 0.0029,0.00319 0.0046,0.00722 0.0046,0.011528 v 0.029861 h 0.01833 v -0.029861 c 0,-0.0175 -0.01417,-0.031806 -0.03167,-0.031806 -0.0067,0 -0.01278,0.00208 -0.01792,0.00556 z"
       style="font-style:normal;font-variant:normal;font-weight:normal;font-stretch:normal;font-size:0.13888904px;font-family:Jaapokki;-inkscape-font-specification:Jaapokki;stroke-width:0.01041667"
       id="path4749"
       inkscape:connector-curvature="0" />
  </g>
  <flowRoot
     xml:space="preserve"
     id="flowRoot4653"
     style="fill:black;fill-opacity:1;stroke:none;font-family:'Jaapokki subtract';font-style:normal;font-weight:normal;font-size:40px;line-height:1.25;letter-spacing:0px;word-spacing:0px;-inkscape-font-specification:'Jaapokki subtract';font-stretch:normal;font-variant:normal"
     clip-path="none"><flowRegion
       id="flowRegion4655"><rect
         id="rect4657"
         width="17.629629"
         height="46.148148"
         x="1135.5555"
         y="150.14815" /></flowRegion><flowPara
       id="flowPara4659" /></flowRoot>  <g
     aria-label="param"
     style="font-style:normal;font-variant:normal;font-weight:normal;font-stretch:normal;font-size:0.41666681px;line-height:1.25;font-family:'Jaapokki subtract';-inkscape-font-specification:'Jaapokki subtract';letter-spacing:0px;word-spacing:0px;fill:#000000;fill-opacity:1;stroke:none;stroke-width:0.01041667"
     id="text4665"
     transform="matrix(1.133,0,0,1.133,-1.5814819,-0.23467755)"
     clip-path="none">
    <path
       d="m 11.7477,1.9847758 h -0.0135 v 0.093 h 0.01463 v -0.04575 c 0.0051,0.00513 0.01225,0.00813 0.02,0.00813 0.01575,0 0.0285,-0.01275 0.0285,-0.028625 0,-0.01575 -0.01275,-0.028625 -0.0285,-0.028625 -0.0077,0 -0.01487,0.00313 -0.02,0.00813 z m 0.03313,0.02675 c 0,0.004 -0.0015,0.00762 -0.0041,0.010375 -0.0026,0.00275 -0.0061,0.00425 -0.0099,0.00425 -0.0038,0 -0.0074,-0.0015 -0.01,-0.00425 -0.0026,-0.00275 -0.0041,-0.00638 -0.0041,-0.010375 0,-0.00387 0.0015,-0.0075 0.0041,-0.01025 0.0026,-0.00288 0.0063,-0.00438 0.01,-0.00438 0.0037,0 0.0072,0.0015 0.0099,0.00438 0.0026,0.00275 0.0041,0.00637 0.0041,0.01025 z"
       style="font-style:normal;font-variant:normal;font-weight:normal;font-stretch:normal;font-size:0.125px;font-family:Jaapokki;-inkscape-font-specification:Jaapokki;stroke-width:0.01041667"
       id="path4730"
       inkscape:connector-curvature="0" />
    <path
       d="m 11.853317,1.9847758 -0.0013,0.00513 c -0.005,-0.00425 -0.0115,-0.00675 -0.0185,-0.00675 -0.01588,0 -0.02862,0.012625 -0.02862,0.0285 0,0.01575 0.01275,0.0285 0.02862,0.0285 0.007,0 0.0135,-0.0025 0.0185,-0.00675 v 0.00525 h 0.01325 v -0.053875 z m -0.0079,0.03725 c -0.0026,0.00275 -0.0061,0.00425 -0.0099,0.00425 -0.0038,0 -0.0072,-0.0015 -0.01,-0.00425 -0.0026,-0.00288 -0.0041,-0.0065 -0.0041,-0.010375 0,-0.00387 0.0015,-0.00762 0.0041,-0.010375 0.0028,-0.00275 0.0062,-0.00425 0.01,-0.00425 0.0038,0 0.0073,0.0015 0.0099,0.00425 0.0027,0.00275 0.0041,0.0065 0.0041,0.010375 0,0.00387 -0.0014,0.0075 -0.0041,0.010375 z"
       style="font-style:normal;font-variant:normal;font-weight:normal;font-stretch:normal;font-size:0.125px;font-family:Jaapokki;-inkscape-font-specification:Jaapokki;stroke-width:0.01041667"
       id="path4732"
       inkscape:connector-curvature="0" />
    <path
       d="m 11.88985,1.9847758 h -0.01212 v 0.053875 h 0.01563 v -0.02975 c 0.0016,-0.00863 0.01088,-0.014125 0.02,-0.010125 l 0.0061,-0.013875 c -0.0029,-10e-4 -0.006,-0.0015 -0.0091,-0.0015 -0.0071,0 -0.01425,0.00225 -0.01825,0.0075 z"
       style="font-style:normal;font-variant:normal;font-weight:normal;font-stretch:normal;font-size:0.125px;font-family:Jaapokki;-inkscape-font-specification:Jaapokki;stroke-width:0.01041667"
       id="path4734"
       inkscape:connector-curvature="0" />
    <path
       d="m 11.968308,1.9847758 -0.0013,0.00513 c -0.005,-0.00425 -0.0115,-0.00675 -0.0185,-0.00675 -0.01587,0 -0.02862,0.012625 -0.02862,0.0285 0,0.01575 0.01275,0.0285 0.02862,0.0285 0.007,0 0.0135,-0.0025 0.0185,-0.00675 v 0.00525 h 0.01325 v -0.053875 z m -0.0079,0.03725 c -0.0026,0.00275 -0.0061,0.00425 -0.0099,0.00425 -0.0037,0 -0.0072,-0.0015 -0.01,-0.00425 -0.0026,-0.00288 -0.0041,-0.0065 -0.0041,-0.010375 0,-0.00387 0.0015,-0.00762 0.0041,-0.010375 0.0028,-0.00275 0.0063,-0.00425 0.01,-0.00425 0.0038,0 0.0073,0.0015 0.0099,0.00425 0.0028,0.00275 0.0041,0.0065 0.0041,0.010375 0,0.00387 -0.0014,0.0075 -0.0041,0.010375 z"
       style="font-style:normal;font-variant:normal;font-weight:normal;font-stretch:normal;font-size:0.125px;font-family:Jaapokki;-inkscape-font-specification:Jaapokki;stroke-width:0.01041667"
       id="path4736"
       inkscape:connector-curvature="0" />
    <path
       d="m 12.004649,1.9847758 h -0.01213 v 0.053875 h 0.015 v -0.031 c 0.0015,-0.00562 0.0054,-0.010375 0.0115,-0.010375 0.007,0 0.012,0.00688 0.012,0.014625 v 0.02675 h 0.014 v -0.027625 c 2.5e-4,-0.00675 0.0049,-0.01375 0.01187,-0.01375 0.0071,0 0.012,0.00688 0.012,0.014625 v 0.02675 h 0.014 v -0.02675 c 0,-0.015875 -0.01087,-0.028625 -0.02425,-0.028625 -0.0076,0 -0.01463,0.00413 -0.019,0.010625 -0.0045,-0.0065 -0.01125,-0.010625 -0.019,-0.010625 -0.0048,0 -0.0098,0.00238 -0.01363,0.00575 z"
       style="font-style:normal;font-variant:normal;font-weight:normal;font-stretch:normal;font-size:0.125px;font-family:Jaapokki;-inkscape-font-specification:Jaapokki;stroke-width:0.01041667"
       id="path4738"
       inkscape:connector-curvature="0" />
  </g>
  <g
     aria-label="select"
     style="font-style:normal;font-variant:normal;font-weight:normal;font-stretch:normal;font-size:0.41666681px;line-height:1.25;font-family:'Jaapokki subtract';-inkscape-font-specification:'Jaapokki subtract';letter-spacing:0px;word-spacing:0px;fill:#000000;fill-opacity:1;stroke:none;stroke-width:0.01041667"
     id="text4673"
     transform="matrix(1.1,0,0,1.1,-1.0965113,-0.1623656)"
     clip-path="none">
    <path
       d="m 10.75678,2.0294841 c 0.0074,0.00736 0.01764,0.010833 0.02847,0.010833 0.01222,0 0.02208,-0.00917 0.02208,-0.01875 0,-0.010278 -0.0079,-0.015972 -0.01639,-0.018472 -0.0069,-0.00236 -0.01347,-0.00319 -0.01278,-0.00764 8.33e-4,-0.00639 0.0087,-0.00708 0.02042,0.00125 l 0.0081,-0.012639 c -0.0081,-0.00486 -0.01361,-0.00708 -0.02389,-0.00708 -0.01139,0 -0.02125,0.00722 -0.02125,0.018194 0,0.011528 0.0081,0.015139 0.01972,0.01875 0.0044,0.00139 0.0088,0.00278 0.0088,0.00722 0,0.0075 -0.01333,0.00708 -0.02208,-0.00292 z"
       style="font-style:normal;font-variant:normal;font-weight:normal;font-stretch:normal;font-size:0.13888904px;font-family:Jaapokki;-inkscape-font-specification:Jaapokki;stroke-width:0.01041667"
       id="path4717"
       inkscape:connector-curvature="0" />
    <path
       d="m 10.854399,2.0204563 c -0.0028,0.00278 -0.0065,0.00444 -0.01028,0.00444 -0.004,0 -0.0078,-0.00167 -0.0107,-0.00486 -0.0015,-0.00167 -0.0026,-0.00361 -0.0035,-0.00583 h 0.04472 c 4.17e-4,-0.00194 5.56e-4,-0.00375 5.56e-4,-0.00569 0,-0.017639 -0.01431,-0.031806 -0.03181,-0.031806 -0.0175,0 -0.03181,0.014167 -0.03181,0.031806 0,0.0175 0.01431,0.031806 0.03181,0.031806 0.0096,0 0.01833,-0.00431 0.02403,-0.011111 z m -0.02472,-0.016806 c 8.34e-4,-0.0025 0.0021,-0.00486 0.0038,-0.00681 0.0029,-0.00306 0.0067,-0.00472 0.0107,-0.00472 0.0039,0 0.0078,0.00167 0.01056,0.00472 0.0018,0.00194 0.0031,0.00431 0.0038,0.00681 z"
       style="font-style:normal;font-variant:normal;font-weight:normal;font-stretch:normal;font-size:0.13888904px;font-family:Jaapokki;-inkscape-font-specification:Jaapokki;stroke-width:0.01041667"
       id="path4719"
       inkscape:connector-curvature="0" />
    <path
       d="M 10.885558,2.0386508 V 1.9353173 h 0.01778 v 0.1033335 z"
       style="font-style:normal;font-variant:normal;font-weight:normal;font-stretch:normal;font-size:0.13888904px;font-family:Jaapokki;-inkscape-font-specification:Jaapokki;stroke-width:0.01041667"
       id="path4721"
       inkscape:connector-curvature="0" />
    <path
       d="m 10.956667,2.0204563 c -0.0028,0.00278 -0.0065,0.00444 -0.01028,0.00444 -0.004,0 -0.0078,-0.00167 -0.01069,-0.00486 -0.0015,-0.00167 -0.0026,-0.00361 -0.0035,-0.00583 h 0.04472 c 4.17e-4,-0.00194 5.56e-4,-0.00375 5.56e-4,-0.00569 0,-0.017639 -0.01431,-0.031806 -0.03181,-0.031806 -0.0175,0 -0.03181,0.014167 -0.03181,0.031806 0,0.0175 0.01431,0.031806 0.03181,0.031806 0.0096,0 0.01833,-0.00431 0.02403,-0.011111 z m -0.02472,-0.016806 c 8.33e-4,-0.0025 0.0021,-0.00486 0.0038,-0.00681 0.0029,-0.00306 0.0067,-0.00472 0.01069,-0.00472 0.0039,0 0.0078,0.00167 0.01056,0.00472 0.0018,0.00194 0.0031,0.00431 0.0038,0.00681 z"
       style="font-style:normal;font-variant:normal;font-weight:normal;font-stretch:normal;font-size:0.13888904px;font-family:Jaapokki;-inkscape-font-specification:Jaapokki;stroke-width:0.01041667"
       id="path4723"
       inkscape:connector-curvature="0" />
    <path
       d="m 11.041021,1.983234 c -0.0057,-0.00403 -0.0125,-0.00639 -0.02,-0.00639 -0.01833,0 -0.03319,0.014167 -0.03319,0.031667 0,0.017639 0.01486,0.031806 0.03319,0.031806 0.0074,0 0.01417,-0.00236 0.01972,-0.00611 l -0.0078,-0.013889 c -0.01042,0.010278 -0.02847,0.00181 -0.02847,-0.011528 0,-0.015 0.01944,-0.02125 0.02847,-0.011389 z"
       style="font-style:normal;font-variant:normal;font-weight:normal;font-stretch:normal;font-size:0.13888904px;font-family:Jaapokki;-inkscape-font-specification:Jaapokki;stroke-width:0.01041667"
       id="path4725"
       inkscape:connector-curvature="0" />
    <path
       d="m 11.081978,1.9787896 v -0.022222 h -0.01764 v 0.022222 h -0.0125 v 0.01625 h 0.0125 v 0.043611 h 0.01764 v -0.043611 h 0.01389 v -0.01625 z"
       style="font-style:normal;font-variant:normal;font-weight:normal;font-stretch:normal;font-size:0.13888904px;font-family:Jaapokki;-inkscape-font-specification:Jaapokki;stroke-width:0.01041667"
       id="path4727"
       inkscape:connector-curvature="0" />
  </g>
  <path
     style="fill:none;fill-opacity:1;stroke:#ff0101;stroke-width:0.03125;stroke-opacity:1;stroke-miterlimit:4;stroke-dasharray:none"
     d="m 8.8869219,3.2511463 a 0.0766983,0.0766983 0 0 1 -0.076698,0.076698 0.0766983,0.0766983 0 0 1 -0.076698,-0.076698 0.0766983,0.0766983 0 0 1 0.076698,-0.076698 0.0766983,0.0766983 0 0 1 0.076698,0.076698 z"
     id="path4675"
     clip-path="none" />
  <path
     style="fill:none;fill-opacity:1;stroke:#ff0101;stroke-width:0.03125;stroke-opacity:1;stroke-miterlimit:4;stroke-dasharray:none"
     d="m 13.0154,3.2511463 a 0.0766983,0.0766983 0 0 1 -0.0767,0.076698 0.0766983,0.0766983 0 0 1 -0.0767,-0.076698 0.0766983,0.0766983 0 0 1 0.0767,-0.076698 0.0766983,0.0766983 0 0 1 0.0767,0.076698 z"
     id="circle4677"
     clip-path="none" />
</svg>
